<?xml version="1.0" standalone="no"?>
<!DOCTYPE svg PUBLIC "-//W3C//DTD SVG 20010904//EN"
 "http://www.w3.org/TR/2001/REC-SVG-20010904/DTD/svg10.dtd">
<svg version="1.0" xmlns="http://www.w3.org/2000/svg"
 width="32.000000pt" height="32.000000pt" viewBox="0 0 32.000000 32.000000"
 preserveAspectRatio="xMidYMid meet">
<metadata>
Created by potrace 1.16, written by Peter Selinger 2001-2019
</metadata>
<g transform="translate(0.000000,32.000000) scale(0.100000,-0.100000)"
fill="#000000" stroke="none">
<path d="M0 160 l0 -160 160 0 160 0 0 160 0 160 -160 0 -160 0 0 -160z m198
58 c2 -19 10 -28 25 -30 16 -2 22 -10 22 -28 0 -21 -5 -26 -32 -28 -28 -3 -33
-7 -33 -28 0 -31 -26 -42 -48 -21 -14 15 -14 18 1 35 9 10 17 28 17 39 0 12 6
24 13 26 6 3 -9 6 -35 6 -37 1 -48 5 -53 21 -10 33 3 41 63 38 54 -3 57 -5 60
-30z"/>
</g>
</svg>
