<svg width="52" height="52" viewBox="0 0 52 52" fill="none" xmlns="http://www.w3.org/2000/svg">
<g filter="url(#filter0_d_1035_32856)">
<rect x="10" y="8" width="32" height="32" rx="8" fill="#0A0A0A"/>
</g>
<path d="M19.0225 15H27.197C27.6117 15 28.0225 15.0838 28.4057 15.2468C28.7889 15.4097 29.137 15.6484 29.4303 15.9494C29.7236 16.2505 29.9563 16.6078 30.115 17.0011C30.2737 17.3944 30.3554 17.8159 30.3554 18.2416V20.9849H20.154C19.3175 20.9849 18.5153 20.6438 17.9238 20.0368C17.3323 19.4297 17 18.6063 17 17.7478V17.0666C17.0024 16.5177 17.2165 15.992 17.5955 15.6047C17.9745 15.2174 18.4876 15 19.0225 15Z" fill="white"/>
<path d="M26.9324 21.0028H32.9775C33.5139 21.0028 34.0283 21.2215 34.4076 21.6108C34.7869 22.0001 35 22.528 35 23.0786V24.9074C35 25.4579 34.7869 25.9859 34.4076 26.3752C34.0283 26.7644 33.5139 26.9831 32.9775 26.9831H24.6516V23.3255C24.6527 23.0192 24.7126 22.7163 24.8279 22.4338C24.9432 22.1514 25.1115 21.895 25.3233 21.6793C25.5351 21.4636 25.7862 21.2929 26.0623 21.1768C26.3384 21.0608 26.634 21.0016 26.9324 21.0028Z" fill="white"/>
<path d="M25.2318 27.0014H28.172V30.083C28.172 30.8566 27.8725 31.5986 27.3395 32.1456C26.8065 32.6927 26.0836 33 25.3298 33H25.2407C24.4657 33 23.7224 32.684 23.1743 32.1215C22.6263 31.559 22.3184 30.7962 22.3184 30.0007C22.3184 29.2077 22.6253 28.4471 23.1717 27.8863C23.7181 27.3256 24.4591 27.0106 25.2318 27.0106V27.0014Z" fill="white"/>
<path d="M30.3225 21.0028L24.6516 25.296V23.3346C24.6516 23.0276 24.7106 22.7237 24.8253 22.4402C24.9401 22.1567 25.1082 21.8992 25.3201 21.6825C25.532 21.4659 25.7836 21.2943 26.0602 21.1777C26.3369 21.0611 26.6333 21.0016 26.9324 21.0028H30.3225Z" fill="#848484"/>
<path d="M26.3679 27.0014C26.3679 27.0014 25.4503 27.0014 25.1741 27.0014C25.0247 27.0088 24.8759 27.0256 24.7286 27.0517L28.1989 29.6715V27.0014H26.3679Z" fill="#848484"/>
<defs>
<filter id="filter0_d_1035_32856" x="0" y="0" width="52" height="52" filterUnits="userSpaceOnUse" color-interpolation-filters="sRGB">
<feFlood flood-opacity="0" result="BackgroundImageFix"/>
<feColorMatrix in="SourceAlpha" type="matrix" values="0 0 0 0 0 0 0 0 0 0 0 0 0 0 0 0 0 0 127 0" result="hardAlpha"/>
<feOffset dy="2"/>
<feGaussianBlur stdDeviation="5"/>
<feComposite in2="hardAlpha" operator="out"/>
<feColorMatrix type="matrix" values="0 0 0 0 0 0 0 0 0 0 0 0 0 0 0 0 0 0 0.15 0"/>
<feBlend mode="normal" in2="BackgroundImageFix" result="effect1_dropShadow_1035_32856"/>
<feBlend mode="normal" in="SourceGraphic" in2="effect1_dropShadow_1035_32856" result="shape"/>
</filter>
</defs>
</svg>
